<svg width="230" height="229" viewBox="0 0 230 229" fill="none" xmlns="http://www.w3.org/2000/svg">
<g id="lucide:user-circle">
<g id="Group">
<path id="Vector" d="M115 209.917C167.697 209.917 210.417 167.197 210.417 114.5C210.417 61.8028 167.697 19.0833 115 19.0833C62.3028 19.0833 19.5833 61.8028 19.5833 114.5C19.5833 167.197 62.3028 209.917 115 209.917Z" stroke="#FFBF5F" stroke-width="20" stroke-linecap="round" stroke-linejoin="round"/>
<path id="Vector_2" d="M115 124.042C130.809 124.042 143.625 111.226 143.625 95.4167C143.625 79.6075 130.809 66.7917 115 66.7917C99.1908 66.7917 86.375 79.6075 86.375 95.4167C86.375 111.226 99.1908 124.042 115 124.042Z" stroke="#FFBF5F" stroke-width="14" stroke-linecap="round" stroke-linejoin="round"/>
<path id="Vector_3" d="M67.2916 197.15V181.292C67.2916 176.23 69.3022 171.377 72.881 167.798C76.4598 164.219 81.3137 162.208 86.375 162.208H143.625C148.686 162.208 153.54 164.219 157.119 167.798C160.698 171.377 162.708 176.23 162.708 181.292V197.15" stroke="#FFBF5F" stroke-width="14" stroke-linecap="round" stroke-linejoin="round"/>
</g>
</g>
</svg>
